<svg width="31" height="11" viewBox="0 0 31 11" fill="none" xmlns="http://www.w3.org/2000/svg">
<g clip-path="url(#clip0_2104_170)">
<g clip-path="url(#clip1_2104_170)">
<path d="M13.3052 0.0735008L8.11474 3.96812C7.87079 3.01018 7.30702 2.1587 6.51225 1.54787C5.71749 0.93703 4.73698 0.601583 3.72521 0.594394H0V9.54655H3.72521C4.74237 9.55994 5.73338 9.23216 6.5324 8.61805C7.33146 8.00391 7.89006 7.14069 8.11474 6.17284L13.3052 10.0674L18.4957 6.17284V9.54655H24.3505V7.72948H20.4887V0.588337H18.3591V3.96205L13.4356 7.85666L12.3739 6.94812L14.7705 5.13105L17.2974 3.18677L15.8322 2.01778L10.9087 5.77912L9.84697 4.87059L14.7705 1.23643L13.3052 0.0674438V0.0735008ZM1.99299 2.40542H3.58864C3.91882 2.40604 4.24499 2.47629 4.54478 2.61135C4.84928 2.74798 5.12349 2.9414 5.3519 3.18071C5.59229 3.43259 5.78189 3.72644 5.91068 4.04684C6.17545 4.7278 6.17545 5.47976 5.91068 6.16073C5.79024 6.48016 5.61142 6.77569 5.38294 7.03291C5.16087 7.28577 4.88835 7.49184 4.58201 7.63862C4.26648 7.78723 3.92041 7.86387 3.57 7.86273H1.99299V2.41148V2.40542ZM30.9938 7.72948V9.54655H25.1452V0.588337H27.2748V7.72948H31H30.9938Z" fill="white" fill-opacity="0.8"/>
</g>
</g>
<defs>
<clipPath id="clip0_2104_170">
<rect width="31" height="10" fill="white" transform="translate(0 0.0674438)"/>
</clipPath>
<clipPath id="clip1_2104_170">
<rect width="31" height="10" fill="white" transform="translate(0 0.0674438)"/>
</clipPath>
</defs>
</svg>
