<svg width="61" height="12" viewBox="0 0 61 12" fill="none" xmlns="http://www.w3.org/2000/svg">
<g clip-path="url(#clip0_2104_215)">
<g clip-path="url(#clip1_2104_215)">
<path fill-rule="evenodd" clip-rule="evenodd" d="M5.79777 8.21217L7.46818 9.91895L6.07472 11.4031C5.62285 11.8844 4.89009 11.8844 4.43823 11.4031L0.960724 7.69937C0.50886 7.21796 0.50886 6.43767 0.960724 5.95641C1.41273 5.47514 2.14535 5.47514 2.59721 5.95641L5.25647 8.78869L5.79777 8.21217ZM6.23199 7.7497L7.7115 6.17393L9.34784 7.9169L7.9855 9.36794L6.23199 7.7497Z" fill="#CECCD3"/>
<path fill-rule="evenodd" clip-rule="evenodd" d="M12.9262 9.33476L11.1826 7.70585L15.28 3.34191C15.7318 2.86064 16.4645 2.86064 16.9165 3.34191C17.3683 3.82317 17.3683 4.60345 16.9165 5.08487L12.9262 9.33476ZM12.384 9.91229L10.9847 11.4026C10.5327 11.8839 9.80005 11.8839 9.34818 11.4026L3.4158 5.08426C2.96394 4.60284 2.96394 3.82255 3.4158 3.34129C3.86767 2.85987 4.60028 2.85987 5.05229 3.34129L10.1664 8.78818L10.7416 8.17555L12.384 9.91229Z" fill="#CECCD3"/>
<path fill-rule="evenodd" clip-rule="evenodd" d="M10.4121 7.30656L12.0409 5.55549L15.0764 8.78853L17.7351 5.95686C18.1871 5.47559 18.9197 5.47559 19.3716 5.95686C19.8234 6.43828 19.8234 7.21856 19.3716 7.69983L15.8946 11.403C15.4428 11.8842 14.7102 11.8842 14.2583 11.403L10.4121 7.30656ZM9.73738 6.58792L5.87088 2.46984C5.41902 1.98858 5.41902 1.2083 5.87088 0.727031C6.32289 0.245612 7.05551 0.245612 7.50737 0.727031L11.3779 4.84938L9.73738 6.58792Z" fill="#CECCD3"/>
<path fill-rule="evenodd" clip-rule="evenodd" d="M14.4617 0.727892C14.0099 0.246627 13.2772 0.246627 12.8252 0.727892L7.71167 6.17417L9.34816 7.91713L14.4617 2.47086C14.9136 1.98944 14.9136 1.20916 14.4617 0.727892Z" fill="#CECCD3"/>
<path fill-rule="evenodd" clip-rule="evenodd" d="M25.7011 1.57836H24.2781V10.481H29.4919V9.13656H25.7011V1.57836ZM32.5716 4.25522C33.4368 4.25522 34.0174 4.63071 34.3361 5.09098L34.4044 4.37634H35.6339V10.481H34.4044L34.3361 9.76641C34.0174 10.2267 33.4368 10.6022 32.5716 10.6022C31.012 10.6022 29.9533 9.25768 29.9533 7.42869C29.9533 5.58759 31.012 4.25522 32.5716 4.25522ZM32.8676 5.53914C31.9796 5.53914 31.3421 6.27801 31.3421 7.42869C31.3421 8.57938 31.9796 9.31824 32.8676 9.31824C33.5506 9.31824 33.9604 8.93064 34.2678 8.40981V6.44758C33.9604 5.92674 33.5506 5.53914 32.8676 5.53914ZM39.0779 2.32933H37.7118V4.37634H36.6303V5.61182H37.7118V8.32502C37.7118 9.80274 38.5428 10.6022 39.852 10.6022C40.4212 10.6022 40.8424 10.4326 41.127 10.2388L40.7627 9.10022C40.5919 9.20923 40.3415 9.29402 39.9772 9.29402C39.4421 9.29402 39.0779 8.93064 39.0779 8.31291V5.61182H40.8082V4.37634H39.0779V2.32933ZM43.7854 2.32933H42.4194V4.37634H41.3379V5.61182H42.4194V8.32502C42.4194 9.80274 43.2504 10.6022 44.5596 10.6022C45.1287 10.6022 45.55 10.4326 45.8346 10.2388L45.4703 9.10022C45.2995 9.20923 45.0491 9.29402 44.6848 9.29402C44.1497 9.29402 43.7854 8.93064 43.7854 8.31291V5.61182H45.5158V4.37634H43.7854V2.32933ZM48.1174 4.37634H46.7513V10.481H48.1174V4.37634ZM47.4343 1.52991C46.9562 1.52991 46.5919 1.90539 46.5919 2.42623C46.5919 2.94707 46.9562 3.32256 47.4343 3.32256C47.9238 3.32256 48.2881 2.94707 48.2881 2.42623C48.2881 1.90539 47.9238 1.52991 47.4343 1.52991ZM52.2444 4.25522C50.4799 4.25522 49.3073 5.58759 49.3073 7.42869C49.3073 9.25768 50.4912 10.6022 52.2558 10.6022C53.2917 10.6022 54.0772 10.1056 54.5895 9.25768L53.6104 8.44614C53.3372 8.93064 52.8933 9.33036 52.2671 9.33036C51.254 9.33036 50.6962 8.49459 50.6962 7.42869C50.6962 6.35068 51.2312 5.52703 52.2558 5.52703C52.8933 5.52703 53.3145 5.91463 53.5763 6.39913L54.5667 5.59971C54.0544 4.75183 53.2917 4.25522 52.2444 4.25522ZM57.931 4.25522C59.6955 4.25522 60.5607 5.66027 60.5607 7.36813V7.87686H56.508C56.5421 8.84586 57.0886 9.37881 58.0448 9.37881C58.7165 9.37881 59.206 9.06388 59.4678 8.67628L60.4127 9.49993C59.8435 10.2267 59.0921 10.6022 58.0334 10.6022C56.2575 10.6022 55.1192 9.26979 55.1192 7.44081C55.1192 5.59971 56.2803 4.25522 57.931 4.25522ZM57.9082 5.41802C57.1 5.41802 56.5535 5.98731 56.508 6.83518H59.2174C59.1832 5.99942 58.7279 5.41802 57.9082 5.41802Z" fill="white" fill-opacity="0.8"/>
</g>
</g>
<defs>
<clipPath id="clip0_2104_215">
<rect width="60" height="11.4" fill="white" transform="translate(0.630981 0.367432)"/>
</clipPath>
<clipPath id="clip1_2104_215">
<rect width="60" height="11.4" fill="white" transform="translate(0.630981 0.367432)"/>
</clipPath>
</defs>
</svg>
