<svg width="41" height="13" viewBox="0 0 41 13" fill="none" xmlns="http://www.w3.org/2000/svg">
<g clip-path="url(#clip0_2104_207)">
<g clip-path="url(#clip1_2104_207)">
<path d="M24.7638 6.82159C24.7638 6.82159 24.6836 6.51049 24.6836 6.27992V2.67252H26.0508V9.62081L21.6736 5.79066C21.4394 5.58037 21.3008 5.34557 21.3008 5.34557C21.3008 5.34557 21.3702 5.60447 21.3702 5.82849L21.369 9.46399H20.001V2.54297L24.338 6.29619C24.5706 6.50436 24.7638 6.82159 24.7638 6.82159Z" fill="white" fill-opacity="0.8"/>
<path d="M37.1435 2.67383C39.3101 2.67383 39.8649 3.57668 39.8649 4.87432C39.8649 5.81479 39.2095 6.73624 37.8877 6.84529L37.7429 6.85269C37.7429 6.85269 37.8707 6.87657 38.0043 7.01247L40.4031 9.46445H38.5495L35.2007 5.87143H36.8681C38.3617 5.87143 38.4051 5.0398 38.4153 4.83015C38.4433 4.29038 38.2799 3.85882 37.1409 3.85882H35.2343V9.46445H33.8135V2.67383H37.1435Z" fill="white" fill-opacity="0.8"/>
<path d="M26.667 6.16563C26.667 3.32076 28.9204 2.57324 30.8146 2.57324C31.573 2.57324 32.2446 2.6451 32.9514 2.80339L32.9534 4.24601C32.547 4.11392 31.7308 3.82396 30.8148 3.82396C29.019 3.82396 28.147 4.56112 28.147 6.16542C28.147 7.47954 29.087 8.31667 30.8148 8.31667C31.7308 8.31667 32.648 8.08631 33.0922 7.91322L33.0896 9.31272C32.3836 9.47017 31.5732 9.56739 30.8148 9.56739C28.7916 9.5676 26.667 8.52843 26.667 6.16563Z" fill="white" fill-opacity="0.8"/>
<path d="M11.2803 2.84766L12.6137 4.17467C12.5773 4.19179 12.5353 4.21293 12.4859 4.23913C12.4087 4.28161 12.3167 4.33846 12.2065 4.41919C11.9867 4.57876 11.7003 4.83364 11.3339 5.25146L8.72789 8.16565C8.28129 8.66442 7.82749 9.05963 7.40549 9.26865L6.07129 7.94121C6.10769 7.92324 6.14969 7.90338 6.19829 7.8759C6.27549 7.83427 6.36749 7.77657 6.47769 7.69711C6.69689 7.53607 6.98409 7.28267 7.35089 6.86421L9.95629 3.95488C10.4031 3.45674 10.8577 3.05667 11.2803 2.84766Z" fill="white" fill-opacity="0.8"/>
<path d="M6.11912 9.89244C6.70852 9.89244 7.25032 9.76902 7.61792 9.56761C7.78592 9.47504 8.02572 9.31569 8.23192 9.14577C8.43732 8.97648 8.72852 8.71273 8.97472 8.43608L11.5833 5.53013C12.2413 4.79783 12.6367 4.5717 12.8767 4.48272L14.2147 5.82199C13.9355 6.13753 10.6053 9.88546 10.6053 9.88546C10.3783 10.1446 10.1391 10.3946 9.97652 10.552C9.82032 10.7042 9.55312 10.931 9.41512 11.0377C8.63192 11.644 7.58572 12.1358 6.17692 12.1358C2.98472 12.1358 0.40332 9.39029 0.40332 6.22883C0.40332 2.30696 3.30312 0.0312265 5.94412 0.0312265C6.75372 0.00586548 7.40332 0.149789 7.91692 0.334079C8.39152 0.504632 8.74992 0.710902 9.00992 0.851233C8.70252 1.0594 8.40512 1.34324 7.91492 1.89653L7.37932 2.50414C7.25612 2.45405 6.70972 2.25264 6.00832 2.27525C4.31372 2.32809 2.46032 3.77959 2.52712 6.16078C2.58932 8.38726 4.32612 9.89244 6.11912 9.89244Z" fill="white" fill-opacity="0.8"/>
<path d="M11.0515 2.5692C10.8829 2.6624 10.6437 2.82133 10.4363 2.99125C10.2315 3.16054 9.9405 3.42429 9.6935 3.7003L7.0855 6.60689C6.4275 7.33919 6.0319 7.56448 5.7921 7.65367L4.4541 6.31566C4.7341 5.99928 8.0637 2.25198 8.0637 2.25198C8.2913 1.99287 8.5299 1.74286 8.6925 1.58477C8.8487 1.43261 9.1159 1.20668 9.2551 1.09911C10.0369 0.492769 11.0845 0.000976562 12.4933 0.000976562C15.6853 0.000976562 18.2655 2.74673 18.2655 5.90735C18.2655 9.83049 15.3663 12.1049 12.7247 12.1049C11.9157 12.1309 11.2655 11.987 10.7527 11.8012C10.2769 11.6313 9.9171 11.4238 9.6577 11.2841C9.9825 11.0525 10.2605 10.7984 10.7545 10.2407L11.2893 9.63309C11.4125 9.68234 11.9591 9.88396 12.6611 9.86198C14.3551 9.80851 16.2091 8.35553 16.1423 5.97498C16.0795 3.74955 14.3415 2.24374 12.5495 2.24374C11.9591 2.24374 11.4197 2.36779 11.0515 2.5692Z" fill="white" fill-opacity="0.8"/>
</g>
</g>
<defs>
<clipPath id="clip0_2104_207">
<rect width="40" height="12.1348" fill="white" transform="translate(0.404785)"/>
</clipPath>
<clipPath id="clip1_2104_207">
<rect width="40" height="12.1348" fill="white" transform="translate(0.404785)"/>
</clipPath>
</defs>
</svg>
