<svg width="73" height="8" viewBox="0 0 73 8" fill="none" xmlns="http://www.w3.org/2000/svg">
<g clip-path="url(#clip0_2104_193)">
<path d="M14.4768 6.91683C14.4768 6.86854 14.4768 6.7961 14.4768 6.74783C14.4495 6.74783 12.6782 6.84439 11.8061 6.84439C10.6616 6.84439 9.02655 6.82025 9.02655 6.82025L1.50525 6.77197C1.50525 6.74783 1.50525 6.65125 1.50525 6.6271L9.0538 6.60296C9.0538 6.60296 10.6889 6.6271 11.8334 6.6271C12.7054 6.6271 14.4495 6.6271 14.4768 6.6271C14.4768 6.55468 14.4495 6.43394 14.4495 6.33736C14.4222 6.33736 12.6782 6.4581 11.8334 6.4581C10.6889 6.4581 9.0538 6.38565 9.0538 6.38565H7.11896L4.55736 6.31323H1.5325C1.5325 6.2891 1.55975 6.19252 1.55975 6.16836C1.66876 6.19252 1.75051 6.21665 2.13202 6.21665C2.62254 6.21665 2.84055 6.12007 2.84055 6.12007C2.84055 6.12007 3.19482 6.21665 3.65807 6.21665C3.87609 6.21665 4.36662 6.02349 4.66637 6.09594C5.1569 6.21665 5.34764 6.02349 5.34764 6.02349C5.34764 6.02349 5.45665 6.14423 5.67466 6.19252C5.83818 6.21665 6.05616 6.12007 6.05616 6.12007C6.05616 6.12007 6.32868 6.2891 7.11896 6.2891C8.07276 6.2891 8.34525 5.83036 8.34525 5.83036H8.3725C8.3725 5.83036 8.34525 5.95107 8.39975 6.04765C8.50876 6.24081 8.80853 6.26494 8.80853 6.26494C8.78128 5.73378 9.02655 5.37162 9.02655 5.37162H9.0538L8.9993 5.51646C8.89029 5.90278 9.08105 6.24081 9.08105 6.24081L9.16278 6.19252C9.16278 6.19252 9.08105 5.95107 9.16278 5.61304C9.24454 5.27504 9.3808 5.10601 9.3808 5.10601H9.4353C9.4353 5.10601 9.35354 5.37162 9.35354 5.56475C9.35354 5.73378 9.46255 6.14423 9.81683 6.26494C10.0893 6.36152 10.3073 6.14423 10.3073 6.14423C10.3073 6.14423 10.9069 6.2891 11.3974 6.2891C12.5692 6.2891 12.8417 6.12007 12.8417 6.12007C12.8417 6.12007 12.9234 6.24081 13.523 6.24081C13.8772 6.24081 14.1497 6.21665 14.3132 6.19252C14.3677 6.19252 14.395 6.19252 14.4222 6.16836C14.4222 6.07178 14.395 5.99936 14.3677 5.90278C14.0407 4.28512 12.9779 2.88477 11.5064 1.99144L11.4246 2.20874C12.8689 3.05378 13.9317 4.3817 14.2315 5.95107C14.068 5.99936 13.8227 6.07178 13.523 6.07178C13.0597 6.07178 12.9507 5.95107 12.9507 5.95107C12.9507 5.95107 12.7872 6.04765 12.4874 6.04765C12.2149 6.04765 12.0242 5.87862 12.0242 5.87862C12.0242 5.87862 11.7516 6.12007 11.2611 6.12007C10.6889 6.12007 10.3891 5.8062 10.2801 5.66133C10.1711 5.51646 10.1166 5.39575 10.1166 5.39575H10.0893C10.0893 5.44404 10.1166 5.51646 10.1438 5.58891C10.2256 5.78207 10.2801 5.83036 10.3073 5.87862C10.3346 5.90278 10.3618 5.9752 10.2801 5.99936C10.2256 6.02349 10.1983 5.9752 10.1711 5.95107C10.1438 5.90278 10.0348 5.78207 9.98031 5.58891C9.89858 5.37162 9.89859 5.22675 9.87133 5.10601H9.81683C9.78958 5.20259 9.78958 5.37162 9.78958 5.56475C9.81683 5.78207 9.87133 5.92691 9.89858 5.9752C9.89858 5.9752 9.92584 5.99936 9.92584 6.02349C9.92584 6.09594 9.87133 6.12007 9.81683 6.12007C9.76232 6.12007 9.70782 6.07178 9.68057 6.02349C9.4353 5.66133 9.73507 4.93702 9.81683 4.71973C9.95306 4.40586 9.98031 4.09196 9.98031 4.09196C9.98031 4.09196 10.1438 3.85054 10.2256 3.68151C10.3346 3.46423 10.4163 3.27108 10.4981 3.19864C10.6071 3.10207 10.7978 2.86063 10.9886 2.54675C11.0159 2.49847 11.1794 2.16045 11.2066 2.08802C11.2339 2.03973 11.2611 1.9673 11.2884 1.91901C11.3701 1.62928 11.4519 1.29126 11.4519 1.24298C11.4519 1.17054 11.3156 1.12226 11.3156 1.12226C11.3156 1.12226 11.1794 1.07397 11.0976 1.07397C11.0431 1.07397 10.9886 1.12226 10.9341 1.1464C10.8523 1.17054 10.8251 1.1464 10.8251 1.1464C10.8251 1.1464 10.7161 1.09811 10.6616 1.12226C10.6071 1.12226 10.5526 1.19469 10.4981 1.19469C10.4163 1.21883 10.3891 1.21883 10.3891 1.21883C10.3891 1.21883 10.3073 1.19469 10.2528 1.19469C10.1983 1.21883 10.1438 1.24298 10.0348 1.31541C9.27179 1.07397 8.48151 0.953247 7.66398 0.953247C3.93059 0.953247 0.878477 3.60909 0.823975 6.91683C0.823975 6.94096 0.823975 7.08583 0.823975 7.08583H14.4768C14.4768 7.08583 14.4768 6.94096 14.4768 6.91683ZM5.78367 5.70962C5.75642 5.70962 5.78367 5.68549 5.75642 5.68549C5.94718 5.1543 6.38319 4.06783 7.09171 3.24693C7.17347 3.27108 7.22797 3.31936 7.30973 3.34351C6.79194 3.85054 6.11067 4.84044 5.78367 5.70962ZM6.19242 5.87862C6.32868 5.39575 6.68296 4.3817 7.44599 3.41594C7.52774 3.46423 7.58222 3.48837 7.66398 3.53667C7.14622 4.14025 6.51945 5.10602 6.24693 5.90278C6.21968 5.90278 6.21968 5.87862 6.19242 5.87862ZM6.73746 5.99936C6.71021 5.99936 6.73746 5.99936 6.71021 5.99936C6.81919 5.61304 7.11896 4.59899 7.82749 3.60909C7.90924 3.65738 7.96375 3.68151 8.01825 3.7298C7.52774 4.3817 6.9827 5.27504 6.73746 5.99936ZM7.25522 5.99936C7.22797 5.99936 7.22797 5.99936 7.22797 5.99936C7.33698 5.6372 7.58222 4.74386 8.18176 3.85054C8.26352 3.89883 8.34525 3.94712 8.3725 3.99541C7.9365 4.57486 7.47324 5.34746 7.25522 5.99936ZM9.0538 4.3817C8.91754 4.3817 8.72678 4.33341 8.67227 4.23683C8.69952 4.40586 8.91754 4.5507 9.1083 4.5507C9.0538 4.5507 9.02655 4.57486 8.97204 4.57486C8.72678 4.57486 8.50876 4.3817 8.50876 4.16441C8.50876 4.14025 8.50876 4.09196 8.50876 4.06783C8.69952 4.2127 9.1083 4.40586 9.35354 4.11612V4.14025C9.32629 4.26099 9.19003 4.3817 9.0538 4.3817ZM9.81683 3.44008C9.81683 3.51252 9.76232 3.53667 9.70782 3.5608C9.68057 3.58496 9.59881 3.60909 9.59881 3.63322H9.57156C9.57156 3.63322 9.54431 3.60909 9.51706 3.60909C9.51706 3.58496 9.51706 3.58496 9.51706 3.58496V3.5608V3.51252C9.51706 3.51252 9.4898 3.46423 9.51706 3.41594C9.51706 3.34351 9.59881 3.29522 9.59881 3.29522H9.62606C9.62606 3.29522 9.59881 3.34351 9.57156 3.3918C9.57156 3.41594 9.54431 3.48837 9.57156 3.53667V3.58496L9.59881 3.60909L9.62606 3.58496C9.68057 3.5608 9.68057 3.53667 9.68057 3.53667C9.68057 3.53667 9.62606 3.48837 9.65332 3.44008C9.68057 3.3918 9.76232 3.3918 9.76232 3.3918C9.78958 3.31936 9.76232 3.27108 9.76232 3.27108L9.81683 3.29522C9.78958 3.27108 9.81683 3.34351 9.81683 3.44008ZM10.1711 1.38784C10.2528 1.36369 10.2801 1.31541 10.3618 1.29126C10.4436 1.26712 10.4981 1.29126 10.5526 1.29126C10.6071 1.29126 10.6889 1.21883 10.7433 1.21883C10.7978 1.21883 10.8251 1.24298 10.8796 1.24298C10.9069 1.29126 11.0704 1.19469 11.0976 1.19469C11.1249 1.19469 11.2339 1.19469 11.2066 1.29126C11.1794 1.36369 11.1249 1.58099 11.0159 1.87072C10.9886 1.94315 10.9341 2.03973 10.8796 2.13631C10.8251 2.23288 10.7706 2.3536 10.6889 2.45018C10.3891 2.88477 10.0893 2.78819 9.51706 3.02964C9.0538 3.22279 8.86304 3.34351 8.80853 3.41594C8.75403 3.36765 8.72678 3.36765 8.67227 3.34351C8.75403 3.27108 8.94479 3.15036 9.32629 2.98135C9.73507 2.78819 10.4163 2.54675 10.5526 2.32946C10.5526 2.30531 10.5526 2.30531 10.5526 2.28117C10.3891 2.37775 10.2528 2.42603 10.1983 2.47432C9.54431 2.76405 9.29904 2.83648 8.9993 2.98135C8.86304 3.05378 8.64502 3.15036 8.50876 3.24693C8.48151 3.22279 8.427 3.19864 8.39975 3.1745C8.53601 3.07792 8.72678 2.98135 8.91754 2.88477C9.21728 2.76405 9.46255 2.64333 10.1711 2.28117C10.2256 2.25703 10.5799 2.06387 10.8523 1.87072C10.8523 1.84658 10.8523 1.82243 10.8796 1.79829C10.6344 1.91901 9.84408 2.30531 9.68057 2.37775C9.02655 2.66748 9.0538 2.64333 8.75403 2.78819C8.56326 2.88477 8.3725 2.98135 8.23627 3.07792C8.20902 3.05378 8.15451 3.02964 8.12726 3.00549C8.29077 2.90892 8.427 2.81234 8.64502 2.71576C8.94479 2.5709 8.97204 2.54675 9.65332 2.25703C9.98031 2.11216 10.5799 1.75 10.9069 1.58099C10.9069 1.55685 10.9069 1.55685 10.9069 1.53271C10.5799 1.70171 9.62606 2.13631 9.4898 2.20874C8.83578 2.47432 8.75403 2.49847 8.45426 2.64333C8.29077 2.71576 8.12726 2.81234 7.991 2.88477C7.96375 2.86063 7.9365 2.83648 7.90924 2.81234C8.01825 2.73991 8.20902 2.61919 8.45426 2.49847C8.75403 2.3536 8.80853 2.32946 9.46255 2.03973C9.54431 2.01559 9.87133 1.84658 10.1711 1.67757C10.2528 1.62928 10.3618 1.58099 10.4436 1.53271C10.5254 1.48442 10.5799 1.43613 10.6344 1.41198L10.6071 1.38784C10.4708 1.43613 10.2801 1.5327 10.2256 1.55685C9.87133 1.72586 9.4353 1.91901 9.29904 1.9673C8.64502 2.25703 8.56326 2.28117 8.26352 2.42603C8.10001 2.49847 7.90924 2.59504 7.80024 2.69162C7.77298 2.66748 7.74573 2.64333 7.71848 2.61919C7.85474 2.52261 8.0455 2.40189 8.26352 2.30531C8.56326 2.16045 8.61777 2.13631 9.27179 1.84658C9.3808 1.79829 9.4898 1.75 9.57156 1.70171C9.59881 1.70171 9.89859 1.55685 10.1711 1.38784ZM7.9365 1.24298C8.56326 1.24298 9.19003 1.31541 9.76232 1.48442C9.65332 1.55685 9.4898 1.62928 9.27179 1.72586C8.50876 2.06387 8.427 2.08802 8.10001 2.23288C7.88199 2.32946 7.71848 2.42603 7.58222 2.52261C7.58222 2.52261 7.44599 2.3536 7.36423 2.30531C7.28248 2.25703 7.09171 2.20874 7.03721 2.18459C6.9282 2.13631 6.90095 2.08802 6.73746 2.03973C6.6012 1.99144 6.4922 2.01559 6.41044 2.01559C6.32868 1.99144 6.24693 1.9673 6.11067 1.9673C6.02891 1.9673 5.91993 2.01559 5.83818 2.01559C5.72917 2.01559 5.64741 1.99144 5.56566 1.99144C5.4839 2.01559 5.37489 2.08802 5.26588 2.08802C5.18413 2.11216 5.07515 2.08802 5.02064 2.08802C4.96614 2.11216 4.82988 2.20874 4.74812 2.23288C4.69362 2.25703 4.53011 2.25702 4.55736 2.37775C4.55736 2.47432 4.80263 2.49847 4.80263 2.49847C4.80263 2.49847 5.86543 2.61919 6.90095 3.10207C6.76469 3.27108 6.6012 3.44008 6.4922 3.63322C6.41044 3.60909 6.30143 3.58496 6.24693 3.58496C6.13792 3.58496 6.02891 3.63322 5.94718 3.60909C5.78367 3.60909 5.78367 3.58496 5.59291 3.60909C5.45665 3.63322 5.45665 3.65738 5.34764 3.68151C5.26588 3.70567 5.18413 3.68151 5.0479 3.70567C4.99339 3.7298 4.88438 3.82638 4.80263 3.85054C4.74812 3.87467 4.63912 3.87467 4.55736 3.92296C4.50286 3.97125 4.50285 4.01954 4.36662 4.06783C4.28487 4.11612 4.23036 4.09196 4.14861 4.16441C4.0941 4.26099 4.0941 4.33341 3.95784 4.42999C3.79433 4.5507 3.79433 4.64728 3.82158 4.67144C3.87609 4.76802 4.12136 4.67144 4.12136 4.67144C4.12136 4.67144 4.99339 4.40586 6.02891 4.35757C5.75642 4.84044 5.5384 5.29917 5.40214 5.61304C5.37489 5.68549 5.34764 5.75791 5.32039 5.8062C5.29314 5.8062 5.29314 5.8062 5.29314 5.8062C5.23863 5.75791 5.23863 5.68549 5.26588 5.51646C5.29313 5.34746 5.45665 5.00944 5.51115 4.93702H5.45665C5.40214 5.00944 5.23863 5.27504 5.21138 5.32333C5.1569 5.41991 5.12965 5.44404 5.02064 5.66133C4.99339 5.70962 4.93889 5.8062 4.85713 5.8062C4.80263 5.8062 4.74812 5.78207 4.74812 5.73378C4.74812 5.70962 4.77538 5.66133 4.80263 5.66133C4.93889 5.46817 5.0479 5.27504 5.07515 5.17846H5.02064C5.02064 5.17846 4.63912 5.95107 3.82158 5.95107C3.54908 5.95107 3.24932 5.83036 3.24932 5.83036C3.24932 5.83036 2.8678 5.9752 2.35003 5.9752C1.94127 5.9752 1.69601 5.90278 1.587 5.87862C2.15928 3.27108 4.69362 1.24298 7.9365 1.24298Z" fill="white" fill-opacity="0.8"/>
<path d="M26.8495 6.94096L26.795 6.91682C26.468 6.77196 26.359 6.36151 26.1955 5.99935L24.5332 2.08801H22.9526V2.20873L23.0344 2.23288C23.0344 2.23288 23.1161 2.25702 23.1434 2.28117C23.2251 2.32945 23.3069 2.42603 23.1979 2.66747C23.1979 2.78819 23.1434 2.88477 23.1434 2.88477L21.8353 5.99935C21.6991 6.33738 21.5901 6.77196 21.2631 6.91682L21.1541 6.96511V7.08582H22.9254V6.96511L22.7891 6.91682C22.6256 6.86854 22.5984 6.72367 22.7619 6.31322L22.9526 5.7579H24.8329C24.8874 5.87864 24.9419 6.04764 25.0237 6.28909C25.1055 6.53051 25.2417 6.8444 25.0509 6.94096L24.9419 6.98925V7.10998H26.8495V6.94096ZM24.5604 4.93701H23.3069L23.9337 3.39179L24.5604 4.93701Z" fill="white" fill-opacity="0.8"/>
<path d="M38.3494 2.08801V2.20873L38.4856 2.25702C38.7036 2.32945 38.6764 2.78819 38.6764 3.07792V6.09593C38.6764 6.33738 38.6764 6.8444 38.4856 6.91683L38.3494 6.96512V7.08583H40.1477V6.96512L40.0114 6.91683C39.7934 6.8444 39.8207 6.33738 39.8207 6.09593V3.07792C39.8207 2.66747 39.8752 2.30531 40.0114 2.25702L40.1477 2.20873V2.08801H38.3494Z" fill="white" fill-opacity="0.8"/>
<path d="M31.5896 2.08801V2.20873L31.7259 2.25702C31.9439 2.32945 31.9166 2.78819 31.9166 3.07792V6.09593C31.9166 6.33738 31.9166 6.8444 31.7259 6.91683L31.5896 6.96512V7.08583H33.3882V6.96512L33.252 6.91683C33.034 6.8444 33.0612 6.33738 33.0612 6.09593V3.07792C33.0612 2.66747 33.1157 2.30531 33.252 2.25702L33.3882 2.20873V2.08801H31.5896Z" fill="white" fill-opacity="0.8"/>
<path d="M21.4802 1.65309C21.0714 1.29093 20.4446 1.09778 19.7634 1.09778H17.447V1.2185L17.556 1.24264C17.8558 1.36336 17.8285 2.01525 17.8285 2.49813V5.66099V5.78173C17.8285 6.14389 17.8285 6.79578 17.556 6.89236L17.447 6.94065V7.06136H19.5726V6.94065L19.4909 6.89236C19.1093 6.67505 19.1093 6.19218 19.1093 5.68515V4.62281L19.3274 4.69525C19.3274 4.69525 19.6816 4.81597 20.0086 4.81597C20.9897 4.81597 22.0524 4.21236 22.0524 2.90858C22.0524 2.4257 21.8617 1.99111 21.4802 1.65309ZM19.4091 4.35723L19.2183 4.38136H19.1093V2.13597C19.2456 2.11183 19.4091 2.11183 19.6271 2.11183C20.0631 2.11183 20.4174 2.20841 20.6081 2.40156C20.7989 2.57057 20.8807 2.78786 20.8807 3.10174C20.8807 3.8502 20.1176 4.30894 19.4091 4.35723Z" fill="white" fill-opacity="0.8"/>
<path d="M50.4483 1.09795H49.4945H46.7693V1.24281L46.9328 1.2911C47.1781 1.38767 47.1781 1.94299 47.1781 2.25686V5.87848C47.1781 6.16819 47.1781 6.7718 46.9328 6.86837L46.7693 6.91666V7.06153H48.8132V6.91666L48.6497 6.86837C48.4044 6.7718 48.4044 6.19235 48.4044 5.87848V4.6954H49.6035C49.6035 4.6954 50.1213 4.64711 50.203 4.84027L50.2303 4.91271L50.3666 4.93685L50.4483 3.34334H50.2576L50.2303 3.43992C50.1758 3.56063 49.7125 3.60892 49.5762 3.58479H48.3772C48.3772 3.05361 48.3772 2.40172 48.3772 2.11199H49.8488C50.203 2.11199 50.3938 2.18443 50.4483 2.35344L50.4753 2.45001H50.6388L51.0203 1.02551C51.0748 1.0738 50.5843 1.09795 50.4483 1.09795Z" fill="white" fill-opacity="0.8"/>
<path d="M30.9906 5.73339L30.9634 5.75755C30.9089 5.80584 30.8544 5.82997 30.8544 5.82997C30.5273 6.02313 29.9823 6.24042 29.4374 6.24042C29.0014 6.24042 28.6471 6.11971 28.3473 5.87826C27.9931 5.56439 27.8023 5.05736 27.8023 4.47791C27.8023 3.56044 28.4018 2.93268 29.2739 2.93268C29.6827 2.93268 30.0913 3.0534 30.5001 3.29484L30.6091 3.36727L30.8271 3.488V3.2707V2.28079V2.18422L30.6636 2.16007C30.1186 2.03935 29.6827 1.96692 29.3011 1.96692C28.5381 1.96692 27.8841 2.20836 27.3936 2.64295C26.8758 3.10169 26.576 3.80186 26.576 4.57447C26.576 5.37123 26.8485 6.02313 27.3663 6.48186C27.8841 6.9406 28.6471 7.18205 29.5192 7.18205C29.9552 7.18205 30.3638 7.1096 30.6908 6.9406H30.7181L30.7726 6.91644L30.7999 6.86815L31.1814 5.70926H30.9906V5.73339Z" fill="white" fill-opacity="0.8"/>
<path d="M44.9165 5.73339L44.753 5.82997C44.426 6.02313 43.881 6.24042 43.3359 6.24042C42.8999 6.24042 42.5456 6.11971 42.2458 5.87826C41.8916 5.56439 41.7008 5.05736 41.7008 4.47791C41.7008 3.56044 42.3003 2.93268 43.1724 2.93268C43.5812 2.93268 43.99 3.0534 44.3987 3.29484L44.7258 3.488V2.28079V2.18422L44.5895 2.16007C44.0445 2.03935 43.6084 1.96692 43.2269 1.96692C42.4639 1.96692 41.8098 2.20836 41.3193 2.64295C40.8015 3.10169 40.5017 3.80186 40.5017 4.57447C40.5017 5.37123 40.7742 6.02313 41.292 6.48186C41.8098 6.9406 42.5729 7.18205 43.4449 7.18205C43.881 7.18205 44.2897 7.1096 44.6168 6.9406L44.6985 6.91644L45.1073 5.70926H44.9165V5.73339Z" fill="white" fill-opacity="0.8"/>
<path d="M37.3946 2.08747H35.896H34.0974V2.20819L34.2337 2.25648C34.4517 2.32891 34.4244 2.78765 34.4244 3.07738V6.09537C34.4244 6.33682 34.4244 6.84385 34.2337 6.9163L34.0974 6.96456V7.0853H35.896V6.96456L35.7598 6.9163C35.5418 6.84385 35.569 6.33682 35.569 6.09537V5.10548H36.5501C36.5501 5.10548 36.9858 5.08135 37.0403 5.22619L37.0676 5.29864L37.1766 5.32277L37.2584 3.99484H37.1221L37.0948 4.06729C37.0676 4.16387 36.6591 4.21216 36.5501 4.188H35.5418C35.5418 3.75342 35.5418 3.1981 35.5418 2.95666H36.8768C37.1766 2.95666 37.3401 3.02909 37.3946 3.14981L37.4219 3.22224H37.5581L37.8851 2.03918C37.9397 2.03918 37.5036 2.08747 37.3946 2.08747Z" fill="white" fill-opacity="0.8"/>
<path d="M60.5036 2.08768V2.2084L60.6126 2.25669C60.8579 2.40155 60.8851 2.61885 60.8851 3.0293V5.32298C60.1221 4.35722 58.4327 2.06354 58.4327 2.06354H57.1246V2.18426L57.2336 2.23255C57.4789 2.37741 57.5062 2.61885 57.5062 3.0293V6.02317C57.5062 6.43361 57.5062 6.74748 57.2336 6.89235L57.1519 6.94064V7.06135H58.8143V6.94064L58.7053 6.89235C58.46 6.84406 58.46 6.43361 58.46 6.02317V3.85019L60.0948 5.92659C60.3946 6.3129 60.8851 6.86819 61.4029 7.01306C61.8117 7.1338 61.8935 7.10964 61.8935 7.10964V3.05344C61.8935 2.643 61.8935 2.40155 62.166 2.25669L62.275 2.2084V2.08768H60.5036Z" fill="white" fill-opacity="0.8"/>
<path d="M67.2072 2.81207C66.6621 2.32918 65.8446 2.0636 64.8365 2.0636H62.7926V2.18432L62.9016 2.20846L62.9561 2.23261C63.2014 2.30504 63.1469 2.81207 63.1469 3.07765V6.09565C63.1469 6.45781 63.1469 6.7717 62.8471 6.9407L62.7654 6.98899V7.08557H64.782C66.6349 7.08557 67.943 6.04736 67.943 4.55044C67.943 3.85025 67.6977 3.24666 67.2072 2.81207ZM66.2534 5.83007C65.8718 6.14394 65.3543 6.3371 64.7003 6.3371C64.564 6.3371 64.4823 6.31297 64.3188 6.28881V2.90864C64.5368 2.86035 64.6458 2.83621 64.8365 2.83621C65.4633 2.83621 65.9263 2.98107 66.2534 3.2708C66.5804 3.56054 66.7439 4.04341 66.7439 4.62286C66.7439 5.10575 66.5531 5.54033 66.2534 5.83007Z" fill="white" fill-opacity="0.8"/>
<path d="M56.1151 6.16835V3.02963C56.1151 2.66747 56.1151 2.32945 56.3876 2.25702L56.4967 2.23288L56.4149 2.08801H54.5618V2.20873L54.6708 2.23288C54.9433 2.32945 54.916 2.71576 54.916 2.98134V5.37161C54.916 5.61303 54.916 5.73377 54.7798 5.90277C54.5618 6.16835 54.153 6.33738 53.7169 6.33738C53.363 6.33738 53.1177 6.26493 52.9269 6.09593C52.6817 5.90277 52.5727 5.54061 52.5727 5.08187V2.9572C52.5727 2.66747 52.5727 2.28117 52.8179 2.20873L52.9269 2.18459V2.08801H51.0193V2.20873L51.1283 2.23288C51.3736 2.30531 51.4008 2.76405 51.3736 3.12621V5.17845C51.3736 5.68548 51.3736 6.19251 51.8369 6.65124C52.2184 7.0134 52.7907 7.20656 53.4447 7.20656C53.9077 7.20656 54.48 6.98924 54.8888 6.69953V7.08582H56.4421V6.96511L56.3331 6.94096C56.1151 6.8444 56.0879 6.53051 56.1151 6.16835Z" fill="white" fill-opacity="0.8"/>
<path d="M72.0316 5.56466C72.0316 5.95095 71.8408 6.33727 71.4865 6.62701C71.0777 6.98916 70.5054 7.1823 69.8787 7.1823C69.3881 7.1823 68.9248 7.10988 68.4888 6.96501H68.4615L68.407 6.94088V6.89259V6.86843L68.189 5.97511L68.1618 5.83024L68.1345 5.70953H68.2708L68.4615 5.90266C68.8703 6.24069 69.4426 6.38556 69.9604 6.38556C70.3147 6.38556 70.8325 6.16827 70.8325 5.80608C70.8325 5.39564 70.3964 5.2025 69.8241 4.96106C69.1428 4.67132 68.3253 4.30916 68.3253 3.39169C68.3253 2.35349 69.4154 1.99133 70.3419 1.99133C70.7507 1.99133 71.1322 2.03962 71.4865 2.16034H71.5138L71.5955 2.18449V2.25692V2.28106V2.90881V3.12611V3.27097L71.4048 3.15025L71.214 3.05367C71.0505 2.9571 70.6417 2.81223 70.2874 2.81223C70.1512 2.81223 69.8514 2.83638 69.6606 3.00538C69.5789 3.07782 69.5244 3.17439 69.5244 3.31926C69.5244 3.68142 70.0149 3.89871 70.5327 4.116C71.1867 4.40574 72.0316 4.7679 72.0316 5.56466Z" fill="white" fill-opacity="0.8"/>
</g>
<defs>
<clipPath id="clip0_2104_193">
<rect width="71.5" height="6.5" fill="white" transform="translate(0.678589 0.817444)"/>
</clipPath>
</defs>
</svg>
