<svg width="35" height="12" viewBox="0 0 35 12" fill="none" xmlns="http://www.w3.org/2000/svg">
<g clip-path="url(#clip0_2104_183)">
<path d="M9.26534 11.3177L27.8921 9.61731H7.65088L9.26534 11.3177Z" fill="white" fill-opacity="0.8"/>
<path d="M32.2119 2.60266C31.8298 2.61206 31.4583 2.73754 31.1423 2.964V2.73019H29.8911V8.51157H31.1423V5.13201C31.1335 4.98395 31.1536 4.83556 31.2013 4.69598C31.2491 4.55641 31.3235 4.42862 31.4199 4.32048C31.5163 4.21235 31.6328 4.12617 31.762 4.06726C31.8913 4.00836 32.0307 3.97796 32.1715 3.97796C32.3124 3.97796 32.4518 4.00836 32.581 4.06726C32.7103 4.12617 32.8267 4.21235 32.9232 4.32048C33.0196 4.42862 33.094 4.55641 33.1417 4.69598C33.1895 4.83556 33.2096 4.98395 33.2008 5.13201V8.53282H34.452V5.13201C34.452 3.72918 33.5438 2.60266 32.2119 2.60266Z" fill="white" fill-opacity="0.8"/>
<path d="M27.0042 2.58215C25.5512 2.58215 24.522 3.92122 24.522 5.62163C24.522 7.40705 25.8135 8.6611 27.1253 8.6611C27.7913 8.6611 28.6187 8.42729 29.325 7.36454L28.2151 6.68438C27.3675 8.00219 25.9346 7.34329 25.7732 6.00422H29.3654C29.6882 3.96373 28.4169 2.58215 27.0042 2.58215ZM25.8539 4.8777C26.1163 3.53863 27.8518 3.45361 28.094 4.8777H25.8539Z" fill="white" fill-opacity="0.8"/>
<path d="M21.8598 6.59904C21.8487 6.86399 21.8884 7.12858 21.9764 7.37702C22.0645 7.62547 22.1992 7.85268 22.3725 8.0451C22.5458 8.23752 22.7541 8.39121 22.985 8.49699C23.2159 8.60277 23.4646 8.65847 23.7164 8.66078C24.1418 8.64509 24.5573 8.52111 24.9273 8.29945L24.1201 7.15167C23.9961 7.24482 23.8485 7.29665 23.6963 7.30046C23.6131 7.29798 23.5313 7.27748 23.456 7.24024C23.3807 7.20299 23.3135 7.1498 23.2586 7.08399C23.2037 7.01817 23.1622 6.94114 23.1369 6.85771C23.1115 6.77427 23.1027 6.68622 23.111 6.59904V4.1122H24.1806V2.73062H23.111V1.28528H21.8598V2.73062H21.1938V4.1122H21.8598V6.59904Z" fill="white" fill-opacity="0.8"/>
<path d="M18.4476 8.66075C18.8297 8.65135 19.2011 8.52588 19.5172 8.29942V8.51197H20.7684V2.73059H19.5172V6.1314C19.526 6.27946 19.5059 6.42786 19.4581 6.56743C19.4104 6.707 19.336 6.8348 19.2396 6.94293C19.1432 7.05106 19.0267 7.13724 18.8974 7.19615C18.7682 7.25506 18.6288 7.28545 18.4879 7.28545C18.3471 7.28545 18.2077 7.25506 18.0785 7.19615C17.9492 7.13724 17.8327 7.05106 17.7363 6.94293C17.6399 6.8348 17.5655 6.707 17.5177 6.56743C17.47 6.42786 17.4499 6.27946 17.4587 6.1314V2.73059H16.2075V6.1314C16.2075 7.53423 17.1157 8.66075 18.4476 8.66075Z" fill="white" fill-opacity="0.8"/>
<path d="M12.7582 6.15253L14.6148 8.53309H16.3504L13.8681 5.45111L16.0073 2.73046H14.2718L12.7582 4.74969V0.817505H11.4868V8.53309H12.7582V6.15253Z" fill="white" fill-opacity="0.8"/>
<path d="M9.52885 8.25725V8.51232H10.7801V2.73094H9.52885V2.986C9.18787 2.72684 8.77884 2.58572 8.35837 2.58215C6.94572 2.58215 5.85596 3.94248 5.85596 5.62163C5.85596 7.30078 6.92554 8.6611 8.35837 8.6611C8.77935 8.66084 9.18932 8.51939 9.52885 8.25725ZM7.12734 5.64288C7.12734 4.72891 7.63186 4.00624 8.33819 4.00624C9.04451 4.00624 9.52885 4.72891 9.52885 5.64288C9.52885 6.55685 9.04451 7.27952 8.33819 7.27952C7.63186 7.27952 7.12734 6.55685 7.12734 5.64288Z" fill="white" fill-opacity="0.8"/>
<path d="M5.45196 3.77212C5.45143 3.11274 5.20249 2.48053 4.75981 2.01428C4.31712 1.54803 3.71687 1.28584 3.09082 1.28528H0.95166V8.512H2.26341V6.28022H3.17154L4.76582 8.512H6.40046L4.46311 5.81261C4.77228 5.58203 5.02375 5.27593 5.19597 4.92055C5.3682 4.56516 5.45604 4.1711 5.45196 3.77212ZM3.111 4.91989H2.26341V2.66686H3.111C3.39467 2.66686 3.66672 2.78554 3.8673 2.99681C4.06789 3.20807 4.18058 3.4946 4.18058 3.79338C4.18058 4.09215 4.06789 4.37868 3.8673 4.58994C3.66672 4.80121 3.39467 4.91989 3.111 4.91989Z" fill="white" fill-opacity="0.8"/>
</g>
<defs>
<clipPath id="clip0_2104_183">
<rect width="33.5" height="10.5" fill="white" transform="translate(0.952393 0.817444)"/>
</clipPath>
</defs>
</svg>
