<svg width="28" height="11" viewBox="0 0 28 11" fill="none" xmlns="http://www.w3.org/2000/svg">
<g clip-path="url(#clip0_2104_227)">
<path d="M3.59646 2.62017H0.858887L0.858887 0.0675049H9.367V2.62017H6.62884V10.0675H3.59646V2.62017ZM9.83781 0.0675049H18.1105V2.62017H12.8704V3.8515H18.1105V6.25354H12.8704V7.51484H18.1105V10.0675H9.83781V0.0675049ZM18.6106 0.0675049H23.586C26.854 0.0675049 28.0017 2.53008 28.0017 5.05269C28.0017 8.1157 26.4117 10.0675 22.9971 10.0675H18.6106V0.0675049ZM21.6433 7.51484H22.8203C24.7044 7.51484 24.97 5.95358 24.97 5.02272C24.97 4.39181 24.7639 2.65022 22.5849 2.65022H21.6131L21.6433 7.51484Z" fill="white" fill-opacity="0.8"/>
</g>
<defs>
<clipPath id="clip0_2104_227">
<rect width="27.1429" height="10" fill="white" transform="translate(0.857178 0.0674438)"/>
</clipPath>
</defs>
</svg>
