<svg width="44" height="10" viewBox="0 0 44 10" fill="none" xmlns="http://www.w3.org/2000/svg">
<g clip-path="url(#clip0_2104_173)">
<g clip-path="url(#clip1_2104_173)">
<path d="M29.1534 8.15925C29.73 8.17187 30.2879 7.95059 30.7049 7.54394L31.4747 8.38973C30.9661 8.92286 30.263 9.3177 29.1672 9.3177C27.2897 9.3177 26.078 8.04701 26.078 6.32737C26.0704 5.94195 26.1374 5.5588 26.2751 5.19984C26.4128 4.84088 26.6185 4.51314 26.8804 4.2354C27.1424 3.95765 27.4554 3.73534 27.8016 3.58119C28.1478 3.42704 28.5204 3.34407 28.8981 3.33704H29.0022C30.8659 3.33704 31.9225 4.7841 31.8302 6.79235H27.4193C27.5764 7.62612 28.1499 8.15724 29.1534 8.15724V8.15925ZM30.4967 5.82831C30.3789 5.05066 29.9232 4.47745 29.01 4.47745C28.6264 4.45458 28.2486 4.58142 27.9533 4.83226C27.6579 5.0831 27.467 5.43917 27.4193 5.82831H30.4967Z" fill="white" fill-opacity="0.8"/>
<path d="M0.22583 8.09647L3.61746 4.58102H0.306349V3.47668H5.18856V4.60307L1.79694 8.11851H5.23373V9.22085H0.22583V8.09647Z" fill="white" fill-opacity="0.8"/>
<path d="M9.04208 8.15925C9.61866 8.17187 10.1766 7.95059 10.5935 7.54394L11.3634 8.38973C10.8547 8.92286 10.1517 9.3177 9.05583 9.3177C7.17836 9.3177 5.96664 8.04701 5.96664 6.32737C5.95909 5.94228 6.02595 5.55946 6.1634 5.20075C6.30085 4.84204 6.50621 4.51449 6.76773 4.23679C7.02925 3.9591 7.34182 3.73671 7.68758 3.58233C8.03334 3.42794 8.40552 3.34459 8.78285 3.33704H8.88693C10.7507 3.33704 11.8072 4.7841 11.7149 6.79235H7.30797C7.46508 7.62612 8.03854 8.15724 9.04208 8.15724V8.15925ZM10.3854 5.82831C10.2675 5.05066 9.81192 4.47745 8.89872 4.47745C8.5151 4.45458 8.13731 4.58142 7.84193 4.83226C7.54655 5.0831 7.35566 5.43917 7.30797 5.82831H10.3854Z" fill="white" fill-opacity="0.8"/>
<path d="M19.0345 6.33318C19.0345 4.49529 20.3798 3.34686 21.8605 3.34686C22.2158 3.34217 22.5678 3.41689 22.8918 3.56577C23.2158 3.71465 23.504 3.93409 23.736 4.20869V0.817505H24.934V9.20527H23.736V8.40357C23.5083 8.68968 23.2205 8.91984 22.8938 9.077C22.5671 9.23417 22.2099 9.31431 21.8488 9.31149C21.4761 9.30861 21.1076 9.23084 20.7644 9.08262C20.4212 8.93441 20.1099 8.71865 19.8484 8.44767C19.5869 8.17669 19.3803 7.85579 19.2403 7.5033C19.1003 7.15082 19.0297 6.77364 19.0326 6.39331C19.0326 6.36926 19.0326 6.34721 19.0326 6.32517L19.0345 6.33318ZM23.8028 6.31314C23.7953 5.82669 23.5997 5.36297 23.2587 5.02305C22.9176 4.68312 22.4587 4.49452 21.982 4.49836C21.5053 4.50219 21.0494 4.69814 20.7137 5.04351C20.3779 5.38889 20.1895 5.85569 20.1895 6.3422C20.1895 6.82872 20.3779 7.29552 20.7137 7.64089C21.0494 7.98627 21.5053 8.18222 21.982 8.18605C22.4587 8.18989 22.9176 8.00129 23.2587 7.66136C23.5997 7.32143 23.7953 6.85772 23.8028 6.37127V6.31314Z" fill="white" fill-opacity="0.8"/>
<path d="M32.6067 7.98707L33.6908 7.41186C33.8346 7.67261 34.0453 7.8884 34.3004 8.03601C34.5554 8.18363 34.8451 8.25749 35.1381 8.24963C35.8157 8.24963 36.1672 7.89488 36.1672 7.49203C36.1672 7.03305 35.5113 6.92883 34.7925 6.78052C33.8322 6.58009 32.8286 6.2514 32.8286 5.06889C32.8286 4.16097 33.6751 3.3232 35.0105 3.33322C36.0612 3.33322 36.8408 3.75812 37.2827 4.44758L36.2909 5.01077C36.1518 4.80061 35.9625 4.63013 35.7409 4.51545C35.5192 4.40077 35.2726 4.34568 35.0242 4.35538C34.3801 4.35538 34.0521 4.67807 34.0521 5.04484C34.0521 5.45772 34.5725 5.57396 35.3856 5.75635C36.3125 5.95677 37.3632 6.27344 37.3632 7.46797C37.3632 8.26967 36.6857 9.32992 35.0792 9.31789C33.9009 9.31789 33.078 8.83487 32.6047 7.98507" fill="white" fill-opacity="0.8"/>
<path d="M40.6185 6.65386L39.6679 7.7101V9.20527H38.47V0.817505H39.6679V6.30913L42.2112 3.4591H43.6703L41.4649 5.91831L43.7253 9.20527H42.3702L40.6185 6.65386Z" fill="white" fill-opacity="0.8"/>
<path d="M15.412 3.3449C13.9882 3.3449 12.7961 4.28689 12.7961 5.8502V9.20531H14.0177V5.99852C14.0177 5.05652 14.5479 4.49333 15.4533 4.49333C16.3586 4.49333 16.8103 5.05652 16.8103 5.99852V9.20531H18.026V5.8482C18.026 4.28489 16.8339 3.3429 15.4101 3.3429" fill="white" fill-opacity="0.8"/>
</g>
</g>
<defs>
<clipPath id="clip0_2104_173">
<rect width="43.5" height="8.5" fill="white" transform="translate(0.226196 0.817444)"/>
</clipPath>
<clipPath id="clip1_2104_173">
<rect width="43.5" height="8.5" fill="white" transform="translate(0.226196 0.817444)"/>
</clipPath>
</defs>
</svg>
